<svg xmlns="http://www.w3.org/2000/svg" width="48.001" height="48" viewBox="0 0 48.001 48">
  <path id="icon" d="M16.067,46.65,28.148,34.52l9.338,9.346A24.461,24.461,0,0,1,26.514,47.9c-.789.068-1.55.1-2.274.1A23.414,23.414,0,0,1,16.067,46.65ZM0,23.893A23.427,23.427,0,0,1,8.021,6.1l0,35.813A23.741,23.741,0,0,1,0,23.893Zm33.708,5.052,12.91-12.939a24.2,24.2,0,0,1,.977,12.427c-1.312,6.743-4.425,9.981-4.425,9.981ZM15.979,1.359a24.011,24.011,0,0,1,14.2-.583A23.481,23.481,0,0,1,42.6,8.832L15.979,35.405Z" transform="translate(0 0)" fill="#0091ea"/>
</svg>
