<svg xmlns="http://www.w3.org/2000/svg" width="119.995" height="48" viewBox="0 0 119.995 48">
  <g id="Logo_camel_name_v_2" transform="translate(-24.005 -154)">
    <path id="icon" d="M16.067,46.65,28.148,34.52l9.338,9.346A24.461,24.461,0,0,1,26.514,47.9c-.789.068-1.55.1-2.274.1A23.414,23.414,0,0,1,16.067,46.65ZM0,23.893A23.427,23.427,0,0,1,8.021,6.1l0,35.813A23.741,23.741,0,0,1,0,23.893Zm33.708,5.052,12.91-12.939a24.2,24.2,0,0,1,.977,12.427c-1.312,6.743-4.425,9.981-4.425,9.981ZM15.979,1.359a24.011,24.011,0,0,1,14.2-.583A23.481,23.481,0,0,1,42.6,8.832L15.979,35.405Z" transform="translate(24.005 154)" fill="#0091ea"/>
    <path id="text" d="M-11.5-22.3q-1.014,1.037-2.289,2.3t-2.665,2.592q-1.39,1.327-2.763,2.607T-21.8-12.42a28.841,28.841,0,0,1,2.975,2.257q1.569,1.342,3.074,2.867t2.828,3.111a26.218,26.218,0,0,1,2.207,3.019h-3.728A30.133,30.133,0,0,0-16.7-4.049q-1.275-1.449-2.7-2.775t-2.877-2.455A25.237,25.237,0,0,0-25.1-11.2V-1.167h-3.172V-22.3H-25.1v9.332q1.144-1.006,2.518-2.272t2.714-2.546q1.341-1.281,2.534-2.455t2.011-2.058Zm9.352,19.09q1.079,0,1.913-.046a8.92,8.92,0,0,0,1.39-.168V-8.151A4.121,4.121,0,0,0,.093-8.41a12.66,12.66,0,0,0-1.782-.107,12.332,12.332,0,0,0-1.455.091,4.73,4.73,0,0,0-1.406.381,2.984,2.984,0,0,0-1.063.793,1.986,1.986,0,0,0-.425,1.327A2.227,2.227,0,0,0-4.991-3.805,5.768,5.768,0,0,0-2.147-3.211Zm-.262-14.211a9.4,9.4,0,0,1,3.09.442,5.046,5.046,0,0,1,2.027,1.25,4.641,4.641,0,0,1,1.1,1.921,8.688,8.688,0,0,1,.327,2.455v9.911l-1.1.168q-.7.107-1.586.2T-.463-.908q-1.03.076-2.044.076a11.973,11.973,0,0,1-2.649-.274,6.139,6.139,0,0,1-2.093-.869A4.052,4.052,0,0,1-8.621-3.546a5.179,5.179,0,0,1-.49-2.348,4.276,4.276,0,0,1,.572-2.257A4.395,4.395,0,0,1-6.986-9.676,7.5,7.5,0,0,1-4.7-10.53,13.346,13.346,0,0,1-1.95-10.8q.458,0,.948.046t.932.122q.441.076.768.137t.458.091V-11.2a5.966,5.966,0,0,0-.163-1.388A3.076,3.076,0,0,0,.4-13.808a2.956,2.956,0,0,0-1.161-.854,4.841,4.841,0,0,0-1.913-.32,15.378,15.378,0,0,0-2.632.2,9.737,9.737,0,0,0-1.684.412l-.36-2.348a9.914,9.914,0,0,1,1.962-.473A18.14,18.14,0,0,1-2.408-17.422ZM15.8-24.832a12.553,12.553,0,0,1,2.305.183,8.716,8.716,0,0,1,1.357.335l-.556,2.44a5.928,5.928,0,0,0-1.112-.351,7.913,7.913,0,0,0-1.766-.168,3.578,3.578,0,0,0-2.975,1.083,4.59,4.59,0,0,0-.85,2.912v1.372h6.54v2.379h-6.54V-1.167H9.167V-18.458a6.514,6.514,0,0,1,1.6-4.712Q12.371-24.832,15.8-24.832Zm8.828,7.807h6.441v2.379H24.633v7.319a8.225,8.225,0,0,0,.2,1.967,2.867,2.867,0,0,0,.589,1.22,2.128,2.128,0,0,0,.981.625,4.639,4.639,0,0,0,1.373.183,6.89,6.89,0,0,0,2.207-.29q.834-.29,1.161-.412l.589,2.348a11.829,11.829,0,0,1-1.6.534,9.728,9.728,0,0,1-2.616.32,8.451,8.451,0,0,1-2.861-.412,4.162,4.162,0,0,1-1.815-1.235,4.792,4.792,0,0,1-.965-2.028,12.5,12.5,0,0,1-.278-2.79v-14.15l3.041-.488Z" transform="translate(112.272 190.832)" fill="#424242"/>
  </g>
</svg>
