<svg xmlns="http://www.w3.org/2000/svg" width="40" height="97" viewBox="0 0 40 97">
  <g id="Group_3" data-name="Group 3" transform="translate(-704 -672)">
    <g id="border" transform="translate(704 672)" fill="#fff">
      <path d="M 20 71 C 17.43457984924316 71 14.94641971588135 70.49777984619141 12.60464954376221 69.50730133056641 C 10.34226036071777 68.55039215087891 8.310219764709473 67.18028259277344 6.564970016479492 65.43502807617188 C 4.819719791412354 63.68978118896484 3.449609994888306 61.65774154663086 2.492700099945068 59.39535140991211 C 1.502220034599304 57.05358123779297 1 54.5654296875 1 52 L 1 20 C 1 17.4345703125 1.502220034599304 14.94641971588135 2.492700099945068 12.60464954376221 C 3.449609994888306 10.34226036071777 4.819719791412354 8.310219764709473 6.564970016479492 6.564970016479492 C 8.310219764709473 4.819719791412354 10.34226036071777 3.449609994888306 12.60464954376221 2.492700099945068 C 14.94641971588135 1.502220034599304 17.43457984924316 1 20 1 C 22.5654296875 1 25.05357933044434 1.502220034599304 27.39534950256348 2.492700099945068 C 29.65773963928223 3.449609994888306 31.68977928161621 4.819719791412354 33.43503189086914 6.564970016479492 C 35.18027877807617 8.310219764709473 36.55038833618164 10.34226036071777 37.50730133056641 12.60464954376221 C 38.49777984619141 14.94641971588135 39 17.4345703125 39 20 L 39 52 C 39 54.5654296875 38.49777984619141 57.05358123779297 37.50730133056641 59.39535140991211 C 36.55038833618164 61.65774154663086 35.18027877807617 63.68978118896484 33.43503189086914 65.43502807617188 C 31.68977928161621 67.18028259277344 29.65773963928223 68.55039215087891 27.39534950256348 69.50730133056641 C 25.05357933044434 70.49777984619141 22.5654296875 71 20 71 Z" stroke="none"/>
      <path d="M 20 2 C 15.1920223236084 2 10.67182159423828 3.872322082519531 7.272079467773438 7.272079467773438 C 3.872322082519531 10.67182159423828 2 15.19202041625977 2 20 L 2 52 C 2 56.80797576904297 3.872322082519531 61.32817840576172 7.272079467773438 64.72792053222656 C 10.67182159423828 68.12767791748047 15.1920223236084 70 20 70 C 24.8079776763916 70 29.32817840576172 68.12767791748047 32.72792053222656 64.72792053222656 C 36.12767791748047 61.32817840576172 38 56.80797576904297 38 52 L 38 20 C 38 15.19202041625977 36.12767791748047 10.67182159423828 32.72792053222656 7.272079467773438 C 29.32817840576172 3.872322082519531 24.8079776763916 2 20 2 M 20 0 C 31.04570007324219 0 40 8.954299926757813 40 20 L 40 52 C 40 63.04570007324219 31.04570007324219 72 20 72 C 8.954299926757813 72 0 63.04570007324219 0 52 L 0 20 C 0 8.954299926757813 8.954299926757813 0 20 0 Z" stroke="none" fill="#757575"/>
    </g>
    <path id="arrow_bottom" d="M720,752l10,8,10-8" transform="translate(-6 8)" fill="none" stroke="#757575" stroke-linecap="round" stroke-linejoin="round" stroke-width="2"/>
    <path id="arrow_top" d="M720,752l10,8,10-8" transform="translate(-6 -2.042)" fill="none" stroke="#757575" stroke-linecap="round" stroke-linejoin="round" stroke-width="2"/>
    <path id="scroller" d="M728,680v16" transform="translate(-4 8)" fill="none" stroke="#757575" stroke-linecap="round" stroke-width="2"/>
  </g>
</svg>
