<svg xmlns="http://www.w3.org/2000/svg" width="740.542" height="740.571" viewBox="0 0 740.542 740.571">
  <path id="logo" data-name="logo" d="M1334.039-2113.989,1520.463-2301.2l144.11,144.241s-74.822,54.174-169.312,62.307c-12.18,1.049-23.915,1.506-35.09,1.506C1384.658-2093.14,1334.039-2113.989,1334.039-2113.989Zm-247.82-351.094C1087.205-2645.66,1210-2739.515,1210-2739.515l-.049,552.483S1085.232-2284.5,1086.218-2465.082Zm519.97,77.943,199.217-199.686s35.339,87.725,15.083,191.787-68.291,154.029-68.291,154.029Zm-273.6-425.592s94.426-40.467,219.214-9.005,191.6,124.32,191.6,124.32L1332.586-2287.3Z" transform="translate(-1086.212 2833.714)" fill="#EEEEEE"/>
</svg>
